inDegrees=no
num_controls=7
num_derivatives=13
num_iterations=73
num_multipliers=7
num_parameters=0
num_slacks=7
num_states=26
objective=0.445980
objective_accelerations=0.055820
objective_balance=0.002976
objective_effort=0.021934
objective_height=0.359736
objective_ligament=0.005515
solver_duration=990.213482
status=Solve_Succeeded
success=true
DataType=double
version=3
OpenSimVersion=4.5
endheader
time	/jointset/ground_pelvis/pelvis_tilt/value	/jointset/ground_pelvis/pelvis_tx/value	/jointset/ground_pelvis/pelvis_ty/value	/jointset/hip_l/hip_flexion_l/value	/jointset/hip_l/hip_adduction_l/value	/jointset/hip_l/hip_rotation_l/value	/jointset/back/lumbar_extension/value	/jointset/patellofemoral_l/patellar_flexion_l/value	/jointset/knee_l/knee_flexion_l/value	/jointset/knee_l/knee_adduction_l/value	/jointset/knee_l/knee_rotation_l/value	/jointset/ankle_l/ankle_angle_l/value	/jointset/subtalar_l/subtalar_angle_l/value	/jointset/ground_pelvis/pelvis_tilt/speed	/jointset/ground_pelvis/pelvis_tx/speed	/jointset/ground_pelvis/pelvis_ty/speed	/jointset/hip_l/hip_flexion_l/speed	/jointset/hip_l/hip_adduction_l/speed	/jointset/hip_l/hip_rotation_l/speed	/jointset/back/lumbar_extension/speed	/jointset/patellofemoral_l/patellar_flexion_l/speed	/jointset/knee_l/knee_flexion_l/speed	/jointset/knee_l/knee_adduction_l/speed	/jointset/knee_l/knee_rotation_l/speed	/jointset/ankle_l/ankle_angle_l/speed	/jointset/subtalar_l/subtalar_angle_l/speed	/forceset/tau_hip_flexion_l	/forceset/tau_hip_adduction_l	/forceset/tau_hip_rotation_l	/forceset/tau_knee_flexion_l	/forceset/tau_ankle_angle_l	/forceset/tau_subtalar_angle_l	/forceset/tau_lumbar_extension	lambda_cid13_p0	lambda_cid13_p1	lambda_cid13_p2	lambda_cid13_p3	lambda_cid13_p4	lambda_cid13_p5	lambda_cid14_p0	/jointset/ground_pelvis/pelvis_tilt/accel	/jointset/ground_pelvis/pelvis_tx/accel	/jointset/ground_pelvis/pelvis_ty/accel	/jointset/hip_l/hip_flexion_l/accel	/jointset/hip_l/hip_adduction_l/accel	/jointset/hip_l/hip_rotation_l/accel	/jointset/back/lumbar_extension/accel	/jointset/patellofemoral_l/patellar_flexion_l/accel	/jointset/knee_l/knee_flexion_l/accel	/jointset/knee_l/knee_adduction_l/accel	/jointset/knee_l/knee_rotation_l/accel	/jointset/ankle_l/ankle_angle_l/accel	/jointset/subtalar_l/subtalar_angle_l/accel	gamma_cid13_p0	gamma_cid13_p1	gamma_cid13_p2	gamma_cid13_p3	gamma_cid13_p4	gamma_cid13_p5	gamma_cid14_p0
1	-0.4854077815884558	-0.05073703141701903	0.5843858198902382	1.733308507173628	-0.4734737879723854	0.01721089426474402	-0.2615279203691486	1.414026148785482	1.41402614878548	-0.07735853756162706	-0.1744848842652487	0.2915008702936913	0.02576986349823364	-0.008283801158131217	0.01270839321580785	0.005445778425995128	-0.01991659747227532	-0.002532422350481803	-3.117967624174115e-05	-0.001177634256352885	-0.004058198324857836	-0.004058198324858389	-0.004403811331792089	0.001342850612419935	0.02341450618616767	0.01167645899218653	-0.2990168581079475	0.04470417545364544	0.0007177485548077179	-0.3276819818256428	0.01491350104068961	0.01038611980161173	0.2626823851313872	-35.17969589991453	2.761817485526361	-2.047311171159271	10.1269829703509	-639.3457758610655	-34.57741702718528	-0.8827456808065292	1.352638090092017	0.1600441039513967	1.924570313849834	-6.466385212464324	-0.02004554550864962	-2.343143227166438	-0.04408434938037917	-5.422704068159944	-5.422704068159939	-0.6457889534452365	-0.01635394629080259	-1.010114247888545	-0.6433161478949897	2.209282658797949e-09	1.305728324946966e-08	-1.08901672526803e-08	-3.435832623427019e-10	-4.415547276253594e-09	4.251807749799576e-08	-1.718532577194396e-09
1.01	-0.4854236546946535	-0.05060198374526225	0.5845363550059703	1.73278711329804	-0.4734992154266361	0.01709227698875364	-0.2615411966148776	1.413714666736514	1.413714666736494	-0.07743222112612436	-0.1744710220986798	0.2916846952366563	0.02585584351812007	0.005126765962979055	0.01430346653654546	0.02465706875976408	-0.08436653476425514	-0.00255251878789588	-0.02367910299291796	-0.001498888997251356	-0.058230948157484	-0.05823094815748615	-0.01034383139410259	0.001426775697860112	0.01334464563873218	0.00551575747932114	-0.2988633423023325	0.04480638200472225	0.0006985611910184763	-0.3274740108983433	0.01473350430165978	0.01040956928208726	0.2625599705132083	-35.22048212674913	2.755580401655186	-2.042668096976953	10.07639868002609	-639.1326569003422	-34.58396216282035	-0.8875735801552126	1.337902588574403	0.1595883236992564	1.918779289558794	-6.434953159573424	0.007088783745688485	-2.373648096382874	-0.02933714971073807	-5.413468557522234	-5.41346855752248	-0.5697522720193797	0.02035495853974708	-1.006296646360348	-0.6030215605554035	-3.03805377794323e-09	1.204899465352949e-08	3.640764456134631e-08	2.804661797450977e-09	-1.345625869803188e-08	8.811803291072803e-08	-1.183156265105708e-08
1.02	-0.4853048948165487	-0.0504509154647852	0.584878877204325	1.731621089015118	-0.4735248277499398	0.01673757423706837	-0.2615583236306674	1.41286167556588	1.41286167556586	-0.0775656336391525	-0.1744564028368189	0.2917676466365101	0.02588010164136369	0.01864279570225159	0.01591251495986292	0.04384319495033379	-0.1488426789365818	-0.002569396161160908	-0.04724827480818393	-0.001947788268780266	-0.1123600226584426	-0.1123600226584464	-0.01634960103223447	0.00149426968642102	0.003239797563728582	-0.0006679203364732466	-0.2987098264968227	0.04490858855571398	0.0006793738269956464	-0.3272660399710428	0.01455350756262273	0.01043301876244243	0.2624375558949307	-35.26803063477632	2.74999203255828	-2.037516990145265	10.05607413298688	-639.018283088449	-34.57086259157905	-0.9007492102514223	1.373730613724351	0.1628391244674135	1.919537485210001	-6.471626588533692	-0.01940173267883699	-2.327392926884376	-0.06961325550543077	-5.413969001826473	-5.413969001826473	-0.6589388686095365	-0.0196401656666282	-1.017111753402094	-0.647911408480739	-1.297932008140445e-08	-3.311276373826681e-09	7.709294518208545e-08	2.7556009812994e-09	-2.43606816846554e-08	1.276863669660361e-07	-2.446018483668122e-08
1.03	-0.4850505529340665	-0.05028367193450682	0.5854130579297625	1.729810420941596	-0.4735506759549956	0.01614732626247801	-0.2615804660049648	1.411467623905487	1.411467623905469	-0.0777593467251963	-0.1744415220985277	0.2917492089441673	0.02584219990688258	0.03223253048119239	0.01753993750759796	0.06298116697149701	-0.2132705628851549	-0.002606657364486602	-0.07081260871433152	-0.002490819604273664	-0.1664420361031783	-0.1664420361031778	-0.02239379828627039	0.001448449592784215	-0.00694931013522229	-0.006934918952622379	-0.2982601796827299	0.04505545275964835	0.0006221505880986672	-0.3269237376164363	0.01450489664079888	0.0104902674665506	0.2621087913261838	-35.25391398139872	2.711372106604178	-2.018469604887748	9.97271546822126	-638.6107437454274	-34.58607800789481	-0.9224985318273874	1.352633835342198	0.163256316155964	1.909152462706706	-6.425317555504941	0.003139206568097238	-2.372670295562096	-0.0481680217082938	-5.404069018769435	-5.404069018768882	-0.5772929432554725	-0.002037936223483279	-1.023107641953564	-0.619478733715303	-2.296848362840366e-08	-1.88179962015035e-08	1.177107711988114e-07	2.673914594985099e-09	-3.528412213622634e-08	1.671931538646356e-07	-3.711447632956825e-08
